Coordinates
version=1
nRows=8
nColumns=40
inDegrees=yes

Units are S.I. units (second, meters, Newtons, ...)
If the header above contains a line with 'inDegrees', this indicates whether rotational values are in degrees (yes) or radians (no).

endheader
time	pelvis_tilt	pelvis_list	pelvis_rotation	pelvis_tx	pelvis_ty	pelvis_tz	hip_flexion_r	hip_adduction_r	hip_rotation_r	knee_angle_r	knee_angle_r_beta	ankle_angle_r	subtalar_angle_r	mtp_angle_r	hip_flexion_l	hip_adduction_l	hip_rotation_l	knee_angle_l	knee_angle_l_beta	ankle_angle_l	subtalar_angle_l	mtp_angle_l	lumbar_extension	lumbar_bending	lumbar_rotation	arm_flex_r	arm_add_r	arm_rot_r	elbow_flex_r	pro_sup_r	wrist_flex_r	wrist_dev_r	arm_flex_l	arm_add_l	arm_rot_l	elbow_flex_l	pro_sup_l	wrist_flex_l	wrist_dev_l
      8.32500000	      8.46965796	     -7.67049965	    179.79822866	      0.34461291	      0.78024906	     -0.62398466	     58.62321144	    -10.12069387	     10.15990939	     63.57235934	      1.10954698	     19.87825287	      0.00000000	      0.00000000	     53.21024452	    -10.04804377	    -16.53342572	     62.46259755	      1.09017799	     15.68250657	      0.00000000	      0.00000000	    -63.77146044	     -5.43633184	    -13.55953964	     58.75031186	      4.60625295	     41.43853622	      3.74431923	      9.81559558	      0.00000000	      0.00000000	     65.85561767	    -14.60790355	     73.41423648	      3.66302917	     83.15660961	      0.00000000	      0.00000000
      8.33000000	      8.50372152	     -7.67633507	    179.79878525	      0.34487559	      0.78117842	     -0.62414705	     58.51367795	    -10.14865699	     10.08467123	     63.28870162	      1.10459622	     19.76105917	      0.00000000	      0.00000000	     53.11087889	    -10.02488109	    -16.60259783	     62.18693299	      1.08536673	     15.53349137	      0.00000000	      0.00000000	    -63.65837063	     -5.49404080	    -13.52861035	     58.68471797	      4.59865426	     41.46359505	      3.72766985	      9.80609227	      0.00000000	      0.00000000	     65.81618492	    -14.59703910	     73.41330108	      3.68214052	     83.15934417	      0.00000000	      0.00000000
      8.33500000	      8.54960796	     -7.67764957	    179.80119829	      0.34505700	      0.78221837	     -0.62449308	     58.40228335	    -10.14216448	     10.03616977	     62.99771334	      1.09951752	     19.61318391	      0.00000000	      0.00000000	     52.98359213	    -10.00389549	    -16.65745946	     61.84598434	      1.07941606	     15.36995898	      0.00000000	      0.00000000	    -63.54492533	     -5.56789836	    -13.48614537	     58.61048239	      4.59911792	     41.49299559	      3.71697213	      9.79622497	      0.00000000	      0.00000000	     65.78372370	    -14.59662645	     73.41149868	      3.69212785	     83.16191672	      0.00000000	      0.00000000
      8.34000000	      8.53937958	     -7.67600702	    179.80214821	      0.34540466	      0.78325639	     -0.62448144	     58.25182476	    -10.16263633	      9.99975902	     62.70411433	      1.09439325	     19.44534992	      0.00000000	      0.00000000	     52.83582352	     -9.93567018	    -16.65960236	     61.54279687	      1.07412444	     15.22880173	      0.00000000	      0.00000000	    -63.48387023	     -5.58532111	    -13.45140058	     58.57593054	      4.58061164	     41.52923694	      3.71195365	      9.78595535	      0.00000000	      0.00000000	     65.75074970	    -14.58141402	     73.41178294	      3.69990642	     83.16489222	      0.00000000	      0.00000000
      8.34500000	      8.54801040	     -7.65748585	    179.80060973	      0.34572324	      0.78431216	     -0.62449343	     58.11130620	    -10.18185798	      9.91388714	     62.40569425	      1.08918484	     19.27718234	      0.00000000	      0.00000000	     52.70019437	     -9.90537527	    -16.69446284	     61.23989027	      1.06883772	     15.09000370	      0.00000000	      0.00000000	    -63.39790322	     -5.60957157	    -13.40474220	     58.53524904	      4.56058140	     41.56003587	      3.70404750	      9.77661484	      0.00000000	      0.00000000	     65.72573679	    -14.56182094	     73.41586047	      3.71881520	     83.16850399	      0.00000000	      0.00000000
      8.35000000	      8.56191193	     -7.61001758	    179.79986003	      0.34593927	      0.78555037	     -0.62465045	     57.92798484	    -10.15104076	      9.82829783	     62.05375811	      1.08304239	     19.07301319	      0.00000000	      0.00000000	     52.52870166	     -9.87576145	    -16.69274427	     60.85164570	      1.06206157	     14.93534016	      0.00000000	      0.00000000	    -63.32492629	     -5.62842008	    -13.32530982	     58.48626654	      4.53100459	     41.60070372	      3.70293787	      9.76521084	      0.00000000	      0.00000000	     65.71142247	    -14.54919606	     73.41670079	      3.72708842	     83.17298380	      0.00000000	      0.00000000
      8.35500000	      8.35566705	     -7.65697938	    179.79606626	      0.34614714	      0.78720053	     -0.62475925	     57.52544843	    -10.25565951	      9.73375735	     61.71261797	      1.07708837	     18.92808643	      0.00000000	      0.00000000	     52.05822805	     -9.76463396	    -16.80854007	     60.40913302	      1.05433827	     14.85388447	      0.00000000	      0.00000000	    -63.51359143	     -5.66714350	    -13.30828959	     58.47445342	      4.44705499	     41.80350008	      3.74054299	      9.72845762	      0.00000000	      0.00000000	     65.79154494	    -14.48949197	     73.46203692	      3.70019363	     83.18105338	      0.00000000	      0.00000000
      8.36000000	      8.45932432	     -7.65761511	    179.79551403	      0.34633042	      0.78809764	     -0.62481415	     57.49882527	    -10.28788656	      9.64723155	     61.43946502	      1.07232096	     18.78459674	      0.00000000	      0.00000000	     52.03593406	     -9.77290029	    -16.92863624	     60.17181867	      1.05019635	     14.70400983	      0.00000000	      0.00000000	    -63.32185850	     -5.71272898	    -13.25888620	     58.39877819	      4.44364750	     41.81932443	      3.72664927	      9.72226087	      0.00000000	      0.00000000	     65.69597719	    -14.45977420	     73.46930887	      3.72272028	     83.18597520	      0.00000000	      0.00000000
